# xmcd CD database file
#
# Track frame offsets:
#	150
#	16613
#	30729
#	48949
#	61711
#	75805
#	89442
#	108929
#	128456
#	142204
#	155331
#	168290
#	187038
#	206529
#	222493
#	236312
#	253109
#	267324
#	283239
#	297418
#	315106
#
# Disc length: 4416 seconds
#
# Revision: 0
# Processed by: cddbd v1.4PL0 Copyright (c) Steve Scherf et al.
# Submitted via: CDex 1.50beta10
#
DISCID=1c113e15
DTITLE=Alicia Villareal y limite - Exitos
DYEAR=2002
DGENRE=Country
TTITLE0=Te quedo grande la yegua
TTITLE1=Acariciame
TTITLE2=Veneno
TTITLE3=Por encima de todo
TTITLE4=Soy lo prohibido
TTITLE5=Yosin tu amor
TTITLE6=Llevo la cuenta
TTITLE7=Solamente tu
TTITLE8=Esta vez
TTITLE9=Sentimientos
TTITLE10=Tu oportunidad
TTITLE11=Aconpañame
TTITLE12=Pasion
TTITLE13=Las cuentas claras
TTITLE14=Capricho loco
TTITLE15=Con la misma piedra
TTITLE16=Hasta mañana
TTITLE17=No vuelvo contigo
TTITLE18=El principe
TTITLE19=Adorable ladron
TTITLE20=Solo contigo
EXTD=YEAR: 2002
EXTT0=
EXTT1=
EXTT2=
EXTT3=
EXTT4=
EXTT5=
EXTT6=
EXTT7=
EXTT8=
EXTT9=
EXTT10=
EXTT11=
EXTT12=
EXTT13=
EXTT14=
EXTT15=
EXTT16=
EXTT17=
EXTT18=
EXTT19=
EXTT20=
PLAYORDER=
